<?xml version="1.0" encoding="utf-8"?>
<!-- Generator: Adobe Illustrator 26.0.2, SVG Export Plug-In . SVG Version: 6.00 Build 0)  -->
<svg version="1.1" id="레이어_1" xmlns="http://www.w3.org/2000/svg" xmlns:xlink="http://www.w3.org/1999/xlink" x="0px"
	 y="0px" viewBox="0 0 100 100" style="enable-background:new 0 0 100 100;" xml:space="preserve">
<style type="text/css">
	.st0{fill:#FFC300;}
</style>
<g>
	<path class="st0" d="M65.72,15.72C73.6,15.72,80,48.97,80,90h11.43c0-44.18-11.51-80-25.71-80c-8.08,0-15.29,10.76-20,27.6
		C41,20.77,33.79,10,25.71,10C11.52,10,0,45.82,0,90h11.43c0-41.02,6.4-74.28,14.28-74.28C33.6,15.72,40,46.42,40,84.29h11.43
		C51.43,46.42,57.83,15.72,65.72,15.72"/>
	<path class="st0" d="M97.15,84.29c1.55,0,2.85,1.23,2.85,2.84c0,1.64-1.3,2.87-2.85,2.87c-1.56,0-2.87-1.23-2.87-2.87
		C94.28,85.51,95.59,84.29,97.15,84.29 M97.15,89.58c1.31,0,2.33-1.06,2.33-2.45c0-1.37-1.02-2.43-2.33-2.43
		c-1.33,0-2.35,1.05-2.35,2.43C94.8,88.52,95.82,89.58,97.15,89.58z M96.04,85.47h1.29c0.79,0,1.16,0.31,1.16,0.95
		c0,0.6-0.38,0.86-0.87,0.91l0.95,1.48h-0.56l-0.9-1.44h-0.55v1.44h-0.52L96.04,85.47L96.04,85.47z M96.56,86.95h0.54
		c0.45,0,0.87-0.02,0.87-0.55c0-0.44-0.38-0.51-0.73-0.51h-0.68L96.56,86.95L96.56,86.95z"/>
</g>
</svg>
